<?xml version="1.0" standalone="no"?>
<!DOCTYPE svg PUBLIC "-//W3C//DTD SVG 20010904//EN"
 "http://www.w3.org/TR/2001/REC-SVG-20010904/DTD/svg10.dtd">
<svg version="1.0" xmlns="http://www.w3.org/2000/svg"
 width="1280.000000pt" height="363.000000pt" viewBox="0 0 1280.000000 363.000000"
 preserveAspectRatio="xMidYMid meet">

<g transform="translate(0.000000,363.000000) scale(0.100000,-0.100000)"
fill="#000000" stroke="none">
<path d="M2200 1640 c0 -926 4 -1570 9 -1570 14 0 931 227 935 231 5 7 -388
2643 -397 2657 -6 8 -47 12 -145 12 l-137 0 -127 120 c-69 66 -129 120 -132
120 -3 0 -6 -706 -6 -1570z"/>
<path d="M11043 2911 c-119 -29 -198 -74 -285 -161 -113 -114 -166 -232 -222
-492 l-6 -28 -100 0 -99 0 -7 -37 c-3 -21 -17 -91 -30 -157 -13 -65 -24 -123
-24 -127 0 -5 45 -9 100 -9 99 0 100 0 95 -22 -20 -84 -222 -1174 -218 -1180
2 -5 98 -8 213 -8 190 0 209 2 214 18 3 9 50 258 106 552 55 294 105 559 111
588 l10 52 150 0 c82 0 149 3 149 8 0 9 48 269 55 300 l5 22 -150 0 c-82 0
-150 4 -150 8 0 31 44 172 64 207 35 59 97 112 148 126 40 10 123 7 174 -7 20
-5 24 5 63 162 32 128 39 169 29 175 -50 31 -284 37 -395 10z"/>
<path d="M5017 1808 c-114 -601 -207 -1099 -207 -1105 0 -10 49 -13 209 -13
116 0 212 4 215 9 3 4 39 185 81 402 41 217 82 419 91 449 58 200 201 360 323
360 41 0 89 -28 108 -62 35 -65 23 -177 -71 -677 -47 -249 -86 -460 -86 -467
0 -11 39 -14 209 -14 119 0 212 4 216 9 12 20 186 963 196 1069 31 300 -82
473 -319 489 -152 10 -295 -45 -418 -160 -41 -38 -74 -67 -74 -65 0 1 38 198
83 436 l84 432 -217 0 -216 0 -207 -1092z"/>
<path d="M9957 2866 c-55 -21 -103 -61 -134 -114 -24 -40 -28 -58 -28 -122 0
-62 4 -83 25 -118 70 -124 267 -132 368 -16 98 111 77 295 -40 355 -52 27
-141 34 -191 15z"/>
<path d="M4344 2250 c-324 -34 -552 -264 -531 -536 7 -99 44 -172 126 -255 36
-36 102 -87 146 -113 100 -61 134 -89 162 -135 45 -72 20 -162 -57 -202 -71
-38 -265 -16 -405 45 l-54 24 -11 -31 c-46 -131 -90 -261 -90 -269 0 -13 112
-62 191 -84 50 -14 101 -18 234 -19 148 0 180 3 250 23 231 67 375 216 406
421 31 207 -54 342 -318 505 -50 31 -103 70 -117 86 -57 68 -38 154 44 200 40
22 56 25 135 23 59 -1 114 -8 160 -23 39 -11 76 -22 84 -23 9 -1 27 38 56 123
62 186 61 174 17 193 -64 27 -104 36 -202 47 -105 11 -123 11 -226 0z"/>
<path d="M7158 2250 c-305 -55 -547 -266 -664 -578 -52 -139 -69 -237 -68
-397 0 -124 4 -149 27 -221 91 -276 340 -422 654 -384 283 35 509 202 643 475
145 292 158 639 34 850 -95 164 -260 254 -474 261 -58 1 -126 -1 -152 -6z
m125 -331 c52 -14 102 -61 124 -117 13 -35 18 -73 17 -152 -1 -276 -122 -565
-266 -633 -43 -20 -126 -22 -171 -3 -42 18 -71 50 -99 111 -20 44 -23 64 -21
170 1 149 32 279 98 412 86 174 195 247 318 212z"/>
<path d="M8863 2246 c-100 -25 -182 -74 -271 -162 -69 -68 -82 -78 -78 -56 3
15 8 59 11 97 4 39 9 78 11 88 5 16 -9 17 -188 17 l-194 0 -13 -102 c-23 -187
-69 -445 -221 -1242 -82 -434 -150 -793 -150 -797 0 -5 97 -9 215 -9 l214 0 6
32 c64 349 113 599 117 604 4 3 19 -1 35 -9 127 -64 377 -51 536 29 276 139
472 452 518 828 13 107 6 267 -16 351 -39 150 -136 272 -252 315 -73 27 -207
35 -280 16z m18 -369 c19 -12 45 -44 59 -72 22 -45 25 -61 24 -160 -4 -288
-156 -583 -333 -643 -64 -22 -153 -10 -217 29 l-31 19 38 212 c47 263 62 319
109 416 69 142 163 221 266 222 37 0 61 -6 85 -23z"/>
<path d="M9725 2218 c-3 -7 -70 -352 -148 -766 -96 -505 -140 -755 -133 -758
7 -3 104 -3 216 -2 l205 3 146 760 c81 418 145 763 142 768 -2 4 -99 7 -214 7
-158 0 -211 -3 -214 -12z"/>
<path d="M11340 2225 c0 -2 59 -320 130 -706 72 -386 130 -713 130 -728 -1
-58 -107 -196 -213 -278 -62 -48 -238 -143 -265 -143 -8 0 -12 -6 -10 -12 3
-7 31 -91 62 -185 66 -197 50 -184 166 -137 288 117 514 367 778 859 80 150
622 1303 622 1324 0 8 -63 11 -221 9 l-221 -3 -20 -50 c-66 -164 -258 -675
-310 -822 -34 -95 -63 -172 -65 -170 -2 3 -62 576 -99 947 -3 30 -7 65 -10 78
l-4 22 -225 0 c-124 0 -225 -2 -225 -5z"/>
</g>
</svg>
